name C:/MyDriveSym/Projects/mobilecap/Data\Session20210823_0002\mocap\ForceDataProcessed\walking2_forces.mot
datacolumns 19
datarows 14
range 1.03450000 1.04100000
endheader 
time	R_ground_force_vx	R_ground_force_vy	R_ground_force_vz	R_ground_force_px	R_ground_force_py	R_ground_force_pz	R_ground_torque_x	R_ground_torque_y	R_ground_torque_z	L_ground_force_vx	L_ground_force_vy	L_ground_force_vz	L_ground_force_px	L_ground_force_py	L_ground_force_pz	L_ground_torque_x	L_ground_torque_y	L_ground_torque_z	
          1.03450000	          0.00000000	          0.00000000	          0.00000000	          1.38715600	          0.00000000	         -0.12303700	          0.00000000	          0.00000000	          0.00000000	         39.73721300	        632.06915900	         38.94218800	          1.02689700	          0.00600000	         -0.26184300	          0.00000000	          3.03478600	          0.00000000	
          1.03500000	          0.00000000	          0.00000000	          0.00000000	          1.38840300	          0.00000000	         -0.12304800	          0.00000000	          0.00000000	          0.00000000	         39.98630500	        632.51307000	         39.02609000	          1.02699600	          0.00600000	         -0.26185700	          0.00000000	          3.02896700	          0.00000000	
          1.03550000	          0.00000000	          0.00000000	          0.00000000	          1.38964900	          0.00000000	         -0.12305800	          0.00000000	          0.00000000	          0.00000000	         40.23578600	        632.95266000	         39.10932000	          1.02709500	          0.00600000	         -0.26187200	          0.00000000	          3.02312700	          0.00000000	
          1.03600000	          0.00000000	          0.00000000	          0.00000000	          1.39089500	          0.00000000	         -0.12306800	          0.00000000	          0.00000000	          0.00000000	         40.48565300	        633.38786300	         39.19186700	          1.02719400	          0.00600000	         -0.26188600	          0.00000000	          3.01726500	          0.00000000	
          1.03650000	          0.00000000	          0.00000000	          0.00000000	          1.39214200	          0.00000000	         -0.12307800	          0.00000000	          0.00000000	          0.00000000	         40.73589900	        633.81861200	         39.27372500	          1.02729300	          0.00600000	         -0.26190000	          0.00000000	          3.01138300	          0.00000000	
          1.03700000	          0.00000000	          0.00000000	          0.00000000	          1.39338800	          0.00000000	         -0.12308800	          0.00000000	          0.00000000	          0.00000000	         40.98651900	        634.24484200	         39.35488500	          1.02739300	          0.00600000	         -0.26191400	          0.00000000	          3.00548000	          0.00000000	
          1.03750000	          0.00000000	          0.00000000	          0.00000000	          1.39463400	          0.00000000	         -0.12309800	          0.00000000	          0.00000000	          0.00000000	         41.23750800	        634.66648700	         39.43534000	          1.02749200	          0.00600000	         -0.26192700	          0.00000000	          2.99955800	          0.00000000	
          1.03800000	          0.00000000	          0.00000000	          0.00000000	          1.39588000	          0.00000000	         -0.12310800	          0.00000000	          0.00000000	          0.00000000	         41.48885900	        635.08347800	         39.51508000	          1.02759100	          0.00600000	         -0.26194100	          0.00000000	          2.99361600	          0.00000000	
          1.03850000	          0.00000000	          0.00000000	          0.00000000	          1.39712700	          0.00000000	         -0.12311800	          0.00000000	          0.00000000	          0.00000000	         41.74056700	        635.49575000	         39.59409800	          1.02769000	          0.00600000	         -0.26195500	          0.00000000	          2.98765600	          0.00000000	
          1.03900000	          0.00000000	          0.00000000	          0.00000000	          1.39837300	          0.00000000	         -0.12312900	          0.00000000	          0.00000000	          0.00000000	         41.99262700	        635.90323500	         39.67238600	          1.02778900	          0.00600000	         -0.26196800	          0.00000000	          2.98167700	          0.00000000	
          1.03950000	          0.00000000	          0.00000000	          0.00000000	          1.39961900	          0.00000000	         -0.12313900	          0.00000000	          0.00000000	          0.00000000	         42.24503100	        636.30586800	         39.74993600	          1.02788900	          0.00600000	         -0.26198200	          0.00000000	          2.97568100	          0.00000000	
          1.04000000	          0.00000000	          0.00000000	          0.00000000	          1.40086500	          0.00000000	         -0.12314900	          0.00000000	          0.00000000	          0.00000000	         42.49777500	        636.70358000	         39.82674000	          1.02798800	          0.00600000	         -0.26199500	          0.00000000	          2.96966700	          0.00000000	
          1.04050000	          0.00000000	          0.00000000	          0.00000000	          1.40211200	          0.00000000	         -0.12315900	          0.00000000	          0.00000000	          0.00000000	         42.75085200	        637.09630500	         39.90279100	          1.02808700	          0.00600000	         -0.26200800	          0.00000000	          2.96363600	          0.00000000	
          1.04100000	          0.00000000	          0.00000000	          0.00000000	          1.40335800	          0.00000000	         -0.12316900	          0.00000000	          0.00000000	          0.00000000	         43.00425500	        637.48397500	         39.97808000	          1.02818700	          0.00600000	         -0.26202100	          0.00000000	          2.95758800	          0.00000000	
